<?xml version="1.0" encoding="utf-8"?>
<!DOCTYPE svg PUBLIC "-//W3C//DTD SVG 20010904//EN" "http://www.w3.org/TR/2001/REC-SVG-20010904/DTD/svg10.dtd">
<svg version="1.0" xmlns="http://www.w3.org/2000/svg" width="530pt" height="530pt" viewBox="0 0 530 530" style="" preserveAspectRatio="xMidYMid meet">
<g fill="#91DA99FF" stroke="#91DA99FF">
<path d="M 164.000 50.044 C 102.742 55.561 55.500 103.250 50.026 165.097 C 48.690 180.201 48.692 349.803 50.029 365.000 C 54.257 413.043 84.214 453.727 128.518 471.591 C 151.118 480.705 159.253 481.218 274.000 480.767 C 358.671 480.434 368.397 480.230 377.000 478.609 C 433.605 467.943 474.924 422.355 479.971 365.000 C 481.310 349.780 481.310 180.220 479.971 165.000 C 476.330 123.623 454.505 88.720 418.500 66.695 C 404.159 57.923 384.248 51.767 364.500 50.001 C 351.665 48.853 176.807 48.891 164.000 50.044 M 391.000 257.000 L 391.000 290.000 397.000 290.000 L 403.000 290.000 403.000 295.500 L 403.000 301.000 397.000 301.000 L 391.000 301.000 391.000 310.050 L 391.000 319.100 385.250 318.800 L 379.500 318.500 379.211 309.770 L 378.923 301.040 357.711 300.770 L 336.500 300.500 336.201 297.437 C 335.954 294.919 338.951 289.676 353.064 267.937 C 362.503 253.397 372.763 237.565 375.863 232.755 L 381.500 224.010 386.250 224.005 L 391.000 224.000 391.000 257.000 M 233.967 223.086 C 252.154 226.987 260.161 247.961 248.423 260.954 C 246.528 263.051 243.589 265.342 241.890 266.046 L 238.801 267.325 242.627 269.186 C 247.836 271.719 252.867 276.686 255.100 281.500 C 257.250 286.133 257.587 295.309 255.824 301.193 C 254.234 306.500 247.855 313.510 241.623 316.797 C 236.916 319.281 235.566 319.500 225.000 319.500 C 213.864 319.500 213.306 319.395 207.360 316.169 C 203.982 314.337 200.083 311.637 198.694 310.169 L 196.170 307.500 199.524 303.654 L 202.878 299.808 206.689 302.859 C 212.326 307.372 217.318 309.093 224.836 309.117 C 232.823 309.142 236.411 307.928 240.769 303.724 C 246.681 298.021 247.377 287.979 242.280 281.921 C 238.149 277.012 232.858 274.926 222.900 274.281 L 214.000 273.704 214.000 268.993 L 214.000 264.282 222.313 263.763 C 235.682 262.929 241.125 258.860 241.742 249.236 C 242.206 242.011 239.795 237.717 233.729 234.964 C 225.401 231.183 215.053 233.430 208.631 240.413 L 205.500 243.818 201.504 240.453 L 197.509 237.088 201.504 232.981 C 210.710 223.519 221.149 220.337 233.967 223.086 M 313.290 225.778 C 323.117 231.298 327.551 239.905 326.787 251.978 C 326.023 264.057 319.890 273.797 299.038 296.047 L 287.836 308.000 307.418 308.000 L 327.000 308.000 327.000 313.516 L 327.000 319.031 298.750 318.766 L 270.500 318.500 270.218 315.000 C 269.955 311.725 271.036 310.312 287.054 293.000 C 306.792 271.667 313.312 263.036 314.998 256.006 C 318.123 242.983 310.746 233.000 298.000 233.000 C 291.472 233.000 285.735 235.908 282.212 241.002 C 280.721 243.159 279.188 244.941 278.807 244.962 C 277.253 245.047 271.000 240.713 271.000 239.551 C 271.000 237.529 276.546 230.459 280.140 227.900 C 289.553 221.198 303.540 220.302 313.290 225.778 M 171.290 225.778 C 181.117 231.298 185.551 239.905 184.787 251.978 C 184.023 264.057 177.890 273.797 157.038 296.047 L 145.836 308.000 165.418 308.000 L 185.000 308.000 185.000 313.516 L 185.000 319.031 156.750 318.766 L 128.500 318.500 128.218 315.000 C 127.955 311.725 129.036 310.312 145.054 293.000 C 164.792 271.667 171.312 263.036 172.998 256.006 C 176.123 242.983 168.746 233.000 156.000 233.000 C 149.472 233.000 143.735 235.908 140.212 241.002 C 138.721 243.159 137.188 244.941 136.807 244.962 C 135.253 245.047 129.000 240.713 129.000 239.551 C 129.000 237.529 134.546 230.459 138.140 227.900 C 147.553 221.198 161.540 220.302 171.290 225.778 "/></g>
<g fill="#DEF4E1FF" stroke="#DEF4E1FF">
<path d="M 375.863 232.755 C 372.763 237.565 362.503 253.397 353.064 267.937 C 338.951 289.676 335.954 294.919 336.201 297.437 L 336.500 300.500 357.711 300.770 L 378.923 301.040 379.211 309.770 L 379.500 318.500 385.250 318.800 L 391.000 319.100 391.000 310.050 L 391.000 301.000 397.000 301.000 L 403.000 301.000 403.000 295.500 L 403.000 290.000 397.000 290.000 L 391.000 290.000 391.000 257.000 L 391.000 224.000 386.250 224.005 L 381.500 224.010 375.863 232.755 M 365.564 290.000 L 351.091 290.000 365.295 267.413 L 379.500 244.827 379.769 267.413 L 380.038 290.000 365.564 290.000 "/></g>
<g fill="#DEF4E1FF" stroke="#DEF4E1FF">
<path d="M 216.951 223.362 C 211.162 224.923 206.549 227.796 201.504 232.981 L 197.509 237.088 201.504 240.453 L 205.500 243.818 208.631 240.413 C 215.053 233.430 225.401 231.183 233.729 234.964 C 239.795 237.717 242.206 242.011 241.742 249.236 C 241.125 258.860 235.682 262.929 222.313 263.763 L 214.000 264.282 214.000 268.993 L 214.000 273.704 222.900 274.281 C 232.858 274.926 238.149 277.012 242.280 281.921 C 247.377 287.979 246.681 298.021 240.769 303.724 C 236.411 307.928 232.823 309.142 224.836 309.117 C 217.318 309.093 212.326 307.372 206.689 302.859 L 202.878 299.808 199.524 303.654 L 196.170 307.500 198.694 310.169 C 200.083 311.637 203.982 314.337 207.360 316.169 C 213.306 319.395 213.864 319.500 225.000 319.500 C 235.566 319.500 236.916 319.281 241.623 316.797 C 247.855 313.510 254.234 306.500 255.824 301.193 C 257.587 295.309 257.250 286.133 255.100 281.500 C 252.867 276.686 247.836 271.719 242.627 269.186 L 238.801 267.325 241.890 266.046 C 243.589 265.342 246.528 263.051 248.423 260.954 C 254.632 254.081 255.714 244.509 251.249 235.962 C 245.430 224.823 231.080 219.551 216.951 223.362 "/></g>
<g fill="#DEF4E1FF" stroke="#DEF4E1FF">
<path d="M 288.479 223.736 C 285.718 224.727 281.965 226.601 280.140 227.900 C 276.546 230.459 271.000 237.529 271.000 239.551 C 271.000 240.713 277.253 245.047 278.807 244.962 C 279.188 244.941 280.721 243.159 282.212 241.002 C 285.735 235.908 291.472 233.000 298.000 233.000 C 310.746 233.000 318.123 242.983 314.998 256.006 C 313.312 263.036 306.792 271.667 287.054 293.000 C 271.036 310.312 269.955 311.725 270.218 315.000 L 270.500 318.500 298.750 318.766 L 327.000 319.031 327.000 313.516 L 327.000 308.000 307.418 308.000 L 287.836 308.000 299.038 296.047 C 319.890 273.797 326.023 264.057 326.787 251.978 C 327.551 239.905 323.117 231.298 313.290 225.778 C 306.420 221.920 295.942 221.057 288.479 223.736 "/></g>
<g fill="#DEF4E1FF" stroke="#DEF4E1FF">
<path d="M 146.479 223.736 C 143.718 224.727 139.965 226.601 138.140 227.900 C 134.546 230.459 129.000 237.529 129.000 239.551 C 129.000 240.713 135.253 245.047 136.807 244.962 C 137.188 244.941 138.721 243.159 140.212 241.002 C 143.735 235.908 149.472 233.000 156.000 233.000 C 168.746 233.000 176.123 242.983 172.998 256.006 C 171.312 263.036 164.792 271.667 145.054 293.000 C 129.036 310.312 127.955 311.725 128.218 315.000 L 128.500 318.500 156.750 318.766 L 185.000 319.031 185.000 313.516 L 185.000 308.000 165.418 308.000 L 145.836 308.000 157.038 296.047 C 177.890 273.797 184.023 264.057 184.787 251.978 C 185.551 239.905 181.117 231.298 171.290 225.778 C 164.420 221.920 153.942 221.057 146.479 223.736 "/></g>
<g fill="#91DA99FF" stroke="#91DA99FF">
<path d="M 365.295 267.413 L 351.091 290.000 365.564 290.000 L 380.038 290.000 379.769 267.413 L 379.500 244.827 365.295 267.413 "/></g>
</svg>
